<svg width="114" height="25" viewBox="0 0 114 25" fill="none" xmlns="http://www.w3.org/2000/svg">
<path d="M12.9369 12.85H4.31191L2.11191 18H0.961914L8.36191 0.499999H9.61191L17.7619 18H15.3369L12.9369 12.85ZM12.4119 11.725L8.48691 3.3H8.38691L4.78691 11.725H12.4119ZM30.9725 18H28.8475V9.775C28.8475 9.60833 28.8308 9.34167 28.7975 8.975C28.7641 8.60833 28.6558 8.24167 28.4725 7.875C28.3058 7.50833 28.0308 7.19167 27.6475 6.925C27.2641 6.64167 26.7225 6.5 26.0225 6.5C25.5891 6.5 25.1641 6.575 24.7475 6.725C24.3475 6.875 23.9891 7.10833 23.6725 7.425C23.3558 7.74167 23.1058 8.13333 22.9225 8.6C22.7391 9.06667 22.6475 9.625 22.6475 10.275V18H20.5225V5.5H22.6475V7.1H22.7475L23.1475 6.7C23.7308 6.11667 24.3225 5.725 24.9225 5.525C25.5225 5.30833 26.0641 5.20833 26.5475 5.225C27.6475 5.225 28.4975 5.41667 29.0975 5.8C29.6975 6.16667 30.1308 6.60833 30.3975 7.125C30.6808 7.625 30.8475 8.14167 30.8975 8.675C30.9475 9.19167 30.9725 9.6 30.9725 9.9V18Z" fill="#FF0000"/>
<path d="M36.2988 18V0.499999H42.0488C43.4322 0.499999 44.6988 0.724999 45.8488 1.175C46.9988 1.60833 47.9822 2.21667 48.7988 3C49.6322 3.76667 50.2738 4.68333 50.7238 5.75C51.1905 6.81667 51.4238 7.96667 51.4238 9.2C51.4238 10.4833 51.1822 11.6667 50.6988 12.75C50.2322 13.8167 49.5822 14.7417 48.7488 15.525C47.9322 16.3083 46.9738 16.9167 45.8738 17.35C44.7738 17.7833 43.5988 18 42.3488 18H36.2988ZM38.5738 16.9H41.3238C42.6905 16.9 43.8488 16.675 44.7988 16.225C45.7655 15.7583 46.5572 15.1583 47.1738 14.425C47.7905 13.6917 48.2405 12.875 48.5238 11.975C48.8072 11.0583 48.9488 10.15 48.9488 9.25C48.9488 8.25 48.7822 7.29167 48.4488 6.375C48.1155 5.44167 47.6238 4.625 46.9738 3.925C46.3405 3.20833 45.5488 2.64167 44.5988 2.225C43.6488 1.80833 42.5572 1.6 41.3238 1.6H38.5738V16.9ZM65.265 12.3H55.765C55.765 13.3167 55.915 14.15 56.215 14.8C56.515 15.45 56.89 15.9583 57.34 16.325C57.79 16.6917 58.2734 16.95 58.79 17.1C59.3234 17.2333 59.8234 17.3 60.29 17.3C60.7067 17.3 61.0817 17.2583 61.415 17.175C61.765 17.075 62.0984 16.9417 62.415 16.775C62.7317 16.6083 63.04 16.4 63.34 16.15C63.6567 15.9 63.99 15.625 64.34 15.325L65.14 16.125C64.4734 16.825 63.69 17.3667 62.79 17.75C61.89 18.1167 60.9067 18.3 59.84 18.3C58.74 18.3 57.7817 18.1167 56.965 17.75C56.165 17.3667 55.4984 16.8667 54.965 16.25C54.4484 15.6167 54.0567 14.9083 53.79 14.125C53.54 13.325 53.415 12.5083 53.415 11.675C53.415 10.675 53.565 9.78333 53.865 9C54.165 8.2 54.5817 7.525 55.115 6.975C55.6484 6.40833 56.2734 5.98333 56.99 5.7C57.7067 5.4 58.49 5.25 59.34 5.25C60.14 5.25 60.8984 5.38333 61.615 5.65C62.3317 5.91667 62.9567 6.31667 63.49 6.85C64.04 7.38333 64.4734 8.05833 64.79 8.875C65.1067 9.69167 65.265 10.6583 65.265 11.775V12.3ZM55.765 11.3H63.09C63.09 9.68333 62.7567 8.41667 62.09 7.5C61.44 6.56667 60.5234 6.1 59.34 6.1C58.7234 6.1 58.19 6.25 57.74 6.55C57.29 6.83333 56.915 7.21667 56.615 7.7C56.3317 8.18333 56.115 8.74167 55.965 9.375C55.8317 9.99167 55.765 10.6333 55.765 11.3ZM76.4955 8.35H75.0705C75.0705 8.13333 75.0122 7.9 74.8955 7.65C74.7788 7.4 74.5955 7.175 74.3455 6.975C74.0955 6.75833 73.7872 6.58333 73.4205 6.45C73.0538 6.3 72.6205 6.225 72.1205 6.225C71.6205 6.225 71.2038 6.3 70.8705 6.45C70.5372 6.58333 70.2705 6.75833 70.0705 6.975C69.8705 7.175 69.7288 7.4 69.6455 7.65C69.5622 7.88333 69.5205 8.10833 69.5205 8.325C69.5205 8.84167 69.7038 9.24167 70.0705 9.525C70.4538 9.80833 70.9288 10.05 71.4955 10.25C72.0622 10.45 72.6705 10.6417 73.3205 10.825C73.9872 11.0083 74.6038 11.25 75.1705 11.55C75.7372 11.8333 76.2038 12.2167 76.5705 12.7C76.9538 13.1833 77.1455 13.825 77.1455 14.625C77.1455 15.725 76.7538 16.6167 75.9705 17.3C75.2038 17.9667 74.0538 18.3 72.5205 18.3C71.6705 18.3 70.9205 18.2 70.2705 18C69.6372 17.7833 69.0955 17.5 68.6455 17.15C68.2122 16.8 67.8872 16.4083 67.6705 15.975C67.4538 15.525 67.3455 15.0667 67.3455 14.6H68.9705C68.9705 14.8 69.0288 15.05 69.1455 15.35C69.2788 15.65 69.4872 15.95 69.7705 16.25C70.0705 16.5333 70.4455 16.7833 70.8955 17C71.3622 17.2 71.9288 17.3 72.5955 17.3C73.1288 17.3 73.5705 17.2333 73.9205 17.1C74.2705 16.95 74.5455 16.775 74.7455 16.575C74.9455 16.3583 75.0788 16.125 75.1455 15.875C75.2288 15.625 75.2705 15.3833 75.2705 15.15C75.2705 14.6 75.0872 14.1667 74.7205 13.85C74.3538 13.5333 73.8955 13.275 73.3455 13.075C72.7955 12.8583 72.1955 12.6667 71.5455 12.5C70.9122 12.3167 70.3205 12.0833 69.7705 11.8C69.2205 11.5167 68.7622 11.1417 68.3955 10.675C68.0288 10.2083 67.8455 9.575 67.8455 8.775C67.8455 8.19167 67.9538 7.68333 68.1705 7.25C68.3872 6.8 68.6788 6.425 69.0455 6.125C69.4288 5.825 69.8705 5.6 70.3705 5.45C70.8872 5.3 71.4372 5.225 72.0205 5.225C72.6372 5.225 73.2122 5.30833 73.7455 5.475C74.2955 5.625 74.7705 5.84167 75.1705 6.125C75.5872 6.39167 75.9122 6.71667 76.1455 7.1C76.3788 7.48333 76.4955 7.9 76.4955 8.35ZM81.3322 5.5H83.4572V18H81.3322V5.5ZM81.0322 1.55C81.0322 1.18333 81.1656 0.866666 81.4322 0.599999C81.6989 0.333333 82.0156 0.2 82.3822 0.2C82.7489 0.2 83.0656 0.333333 83.3322 0.599999C83.5989 0.866666 83.7322 1.18333 83.7322 1.55C83.7322 1.91667 83.5989 2.23333 83.3322 2.5C83.0656 2.76667 82.7489 2.9 82.3822 2.9C82.0156 2.9 81.6989 2.76667 81.4322 2.5C81.1656 2.23333 81.0322 1.91667 81.0322 1.55ZM97.1477 19.05V16H97.0477C96.7643 16.8 96.2727 17.3833 95.5727 17.75C94.8893 18.1167 94.081 18.3 93.1477 18.3C92.2977 18.3 91.5227 18.15 90.8227 17.85C90.1393 17.5333 89.5477 17.0917 89.0477 16.525C88.5477 15.9417 88.156 15.25 87.8727 14.45C87.606 13.6333 87.4727 12.725 87.4727 11.725C87.4727 10.7417 87.606 9.85 87.8727 9.05C88.156 8.25 88.5477 7.56667 89.0477 7C89.5477 6.43333 90.1477 6 90.8477 5.7C91.5477 5.38333 92.3227 5.225 93.1727 5.225C94.2393 5.225 95.0977 5.425 95.7477 5.825C96.4143 6.20833 96.8477 6.75 97.0477 7.45H97.1477V5.5H99.2727V17.775C99.2727 18.6083 99.1893 19.4083 99.0227 20.175C98.8727 20.9583 98.581 21.65 98.1477 22.25C97.7143 22.85 97.106 23.325 96.3227 23.675C95.5393 24.0417 94.5143 24.225 93.2477 24.225C92.5643 24.225 91.956 24.1333 91.4227 23.95C90.8893 23.7833 90.431 23.575 90.0477 23.325C89.6643 23.0917 89.3477 22.85 89.0977 22.6C88.8477 22.3667 88.6643 22.175 88.5477 22.025L89.9227 20.775C90.3727 21.525 90.8643 22.125 91.3977 22.575C91.9477 23.025 92.6643 23.25 93.5477 23.25C94.0477 23.25 94.5143 23.175 94.9477 23.025C95.3977 22.875 95.781 22.6333 96.0977 22.3C96.431 21.9667 96.6893 21.5333 96.8727 21C97.056 20.4667 97.1477 19.8167 97.1477 19.05ZM97.1477 12.675V10.825C97.1477 10.2583 97.0727 9.70833 96.9227 9.175C96.7727 8.64167 96.5477 8.175 96.2477 7.775C95.9643 7.35833 95.606 7.03333 95.1727 6.8C94.7393 6.55 94.2477 6.425 93.6977 6.425C93.4477 6.425 93.0977 6.48333 92.6477 6.6C92.2143 6.7 91.781 6.93333 91.3477 7.3C90.931 7.66667 90.5643 8.2 90.2477 8.9C89.931 9.58333 89.7727 10.5083 89.7727 11.675C89.7727 12.775 89.8977 13.675 90.1477 14.375C90.4143 15.075 90.7393 15.6167 91.1227 16C91.5227 16.3833 91.9477 16.65 92.3977 16.8C92.8643 16.9333 93.2977 17 93.6977 17C94.1477 17 94.581 16.9083 94.9977 16.725C95.4143 16.525 95.781 16.2417 96.0977 15.875C96.4143 15.5083 96.6643 15.0583 96.8477 14.525C97.0477 13.9917 97.1477 13.375 97.1477 12.675ZM113.712 18H111.587V9.775C111.587 9.60833 111.57 9.34167 111.537 8.975C111.503 8.60833 111.395 8.24167 111.212 7.875C111.045 7.50833 110.77 7.19167 110.387 6.925C110.003 6.64167 109.462 6.5 108.762 6.5C108.328 6.5 107.903 6.575 107.487 6.725C107.087 6.875 106.728 7.10833 106.412 7.425C106.095 7.74167 105.845 8.13333 105.662 8.6C105.478 9.06667 105.387 9.625 105.387 10.275V18H103.262V5.5H105.387V7.1H105.487L105.887 6.7C106.47 6.11667 107.062 5.725 107.662 5.525C108.262 5.30833 108.803 5.20833 109.287 5.225C110.387 5.225 111.237 5.41667 111.837 5.8C112.437 6.16667 112.87 6.60833 113.137 7.125C113.42 7.625 113.587 8.14167 113.637 8.675C113.687 9.19167 113.712 9.6 113.712 9.9V18Z" fill="white"/>
</svg>
